<svg id="Слой_1" xmlns="http://www.w3.org/2000/svg" viewBox="0 0 226.8 226.8"><path d="M35.2 81.9c.1-17.9 6.2-32.5 19.9-43.4 2.3-1.9 4.5-3.9 6.8-5.8 5.4-4.3 11.2-4.1 16.1.8 2.6 2.7 5.1 5.6 7.2 8.7 4.1 6.1 8.4 12.2 10.9 19.3 2.5 7.2 1.6 13.7-4.3 18.9-3 2.7-5.9 5.4-9.2 7.6-7 4.8-8 10.8-5.4 18.5 2.4 6.9 6.6 12.9 11.1 18.6 5.9 7.5 12.3 14.7 19.7 20.8 4.1 3.4 8.5 6.4 13.8 7.7 4.6 1.1 8.6-.2 12-3.4 3.2-3.1 6.4-6.2 9.7-9 6.1-5.2 12.8-5.9 19.8-2 3.1 1.7 6.1 3.6 8.8 5.9 4.7 3.9 9.2 8.1 13.7 12.3 1.5 1.4 2.7 3.2 3.7 5 2.8 4.9 2.5 9.6-1.5 13.5-5.4 5.3-10.8 10.7-17.5 14.5-8.2 4.7-17 7-26.5 6.9-13.5-.1-25.6-4.6-36.9-11.5-12.8-7.7-23.7-17.8-33.7-28.8-10.1-11.1-19.3-22.8-26.5-36-5.1-9.8-9.2-20-10.9-31-.4-2.9-.6-5.8-.8-8.1z" fill="#fff"/></svg>