<svg xmlns="http://www.w3.org/2000/svg" xmlns:xlink="http://www.w3.org/1999/xlink" viewBox="0 0 367.69 74.71"><defs><style>.cls-1{isolation:isolate;}.cls-2{fill:url(#linear-gradient);}.cls-3{fill:url(#linear-gradient-2);}.cls-4{fill:url(#linear-gradient-3);}.cls-5{fill:url(#linear-gradient-4);}.cls-6{fill:url(#linear-gradient-5);}.cls-7{fill:url(#linear-gradient-6);}.cls-8{fill:url(#linear-gradient-7);}.cls-9{fill:url(#linear-gradient-8);}.cls-10{fill:url(#linear-gradient-9);}.cls-11{fill:url(#linear-gradient-10);}.cls-12{fill:url(#linear-gradient-11);}.cls-13{fill:url(#linear-gradient-12);}.cls-14{fill:#a8a8a8;mix-blend-mode:color-burn;}.cls-15{fill:#00b5f1;}.cls-16{fill:#fff;}</style><linearGradient id="linear-gradient" x1="-3.95" y1="46.35" x2="35.69" y2="69.24" gradientUnits="userSpaceOnUse"><stop offset="0" stop-color="#001174"/><stop offset="0.14" stop-color="#0058a3"/><stop offset="0.26" stop-color="#008fc7"/><stop offset="0.37" stop-color="#00b7e2"/><stop offset="0.45" stop-color="#00d0f2"/><stop offset="0.5" stop-color="#00d9f8"/><stop offset="0.56" stop-color="#00cbef"/><stop offset="0.66" stop-color="#00a6d6"/><stop offset="0.81" stop-color="#006aaf"/><stop offset="0.99" stop-color="#001879"/><stop offset="1" stop-color="#001174"/></linearGradient><linearGradient id="linear-gradient-2" x1="236.86" y1="305.5" x2="268.05" y2="336.69" xlink:href="#linear-gradient"/><linearGradient id="linear-gradient-3" x1="8.55" y1="61.96" x2="35.01" y2="35.5" gradientUnits="userSpaceOnUse"><stop offset="0" stop-color="#00d9f8"/><stop offset="1" stop-color="#008ee7"/></linearGradient><linearGradient id="linear-gradient-4" x1="246.07" y1="327.28" x2="272.53" y2="300.82" gradientUnits="userSpaceOnUse"><stop offset="0" stop-color="#6afcff"/><stop offset="1" stop-color="#005dbf"/></linearGradient><linearGradient id="linear-gradient-5" x1="28.75" y1="15.53" x2="61.1" y2="34.2" xlink:href="#linear-gradient"/><linearGradient id="linear-gradient-6" x1="268.95" y1="275.8" x2="294.41" y2="301.26" xlink:href="#linear-gradient"/><linearGradient id="linear-gradient-7" x1="38.96" y1="28.26" x2="60.55" y2="6.67" xlink:href="#linear-gradient-3"/><linearGradient id="linear-gradient-8" x1="276.47" y1="293.58" x2="298.07" y2="271.99" xlink:href="#linear-gradient-4"/><linearGradient id="linear-gradient-9" x1="45.82" y1="52.95" x2="77.6" y2="71.3" xlink:href="#linear-gradient"/><linearGradient id="linear-gradient-10" x1="285.9" y1="313.39" x2="310.83" y2="338.32" xlink:href="#linear-gradient"/><linearGradient id="linear-gradient-11" x1="55.81" y1="65.42" x2="76.95" y2="44.28" xlink:href="#linear-gradient-3"/><linearGradient id="linear-gradient-12" x1="293.32" y1="330.74" x2="314.47" y2="309.6" xlink:href="#linear-gradient-4"/></defs><title>Логотип Фидживеб в кривых с белым подзаголовком</title><g class="cls-1"><g id="Слой_1" data-name="Слой 1"><polygon class="cls-2" points="0 39.9 0.92 61.78 19.79 73.58 38.25 63.65 40.35 61.16 2.79 36.72 0 39.52 0 39.9"/><path class="cls-3" d="M240.34,302.36l37.15,24.18-1.88,2.23-18.3,9.84L238.68,327l-.92-21.73v-.28l2.58-2.58m0-.32-2.79,2.79v.39l.92,21.87,18.86,11.8L275.77,329l2.1-2.48L240.31,302Z" transform="translate(-237.52 -265.32)"/><polygon class="cls-4" points="2.79 36.72 3.82 36.12 20.02 27.33 39.26 39.75 40.35 61.16 23.59 70.01 4.04 57.44 2.79 36.72"/><path class="cls-5" d="M257.52,292.95l19,12.26,1.07,21.13L261.12,335l-19.32-12.42-1.22-20.44.89-.52,16.07-8.72m0-.29-16.2,8.79-1,.6,1.24,20.72,19.55,12.57,16.76-8.85-1.09-21.42-19.24-12.41Z" transform="translate(-237.52 -265.32)"/><polygon class="cls-6" points="31.97 10.26 32.73 28.11 48.13 37.75 63.2 29.64 64.91 27.61 34.25 7.66 31.97 9.94 31.97 10.26"/><path class="cls-7" d="M271.8,273.3,302.05,293l-1.5,1.77-14.9,8-15.16-9.49-.75-17.71v-.21l2.06-2.06m0-.32-2.28,2.28v.32l.75,17.85,15.4,9.64L300.71,295l1.71-2-30.65-20Z" transform="translate(-237.52 -265.32)"/><polygon class="cls-8" points="34.25 7.66 35.39 6.95 48.31 0 64.02 10.13 64.91 27.61 51.23 34.84 35.27 24.57 34.25 7.66"/><path class="cls-9" d="M285.82,265.61l15.48,10,.87,17.19-13.41,7.08L273,289.75l-1-16.64,1-.62,12.8-6.88m0-.29-12.93,7-1.13.71,1,16.91,16,10.26,13.68-7.22-.89-17.48-15.71-10.13Z" transform="translate(-237.52 -265.32)"/><polygon class="cls-10" points="48.97 47.79 49.71 65.27 64.78 74.71 79.54 66.77 81.22 65.03 51.2 45.25 48.97 47.48 48.97 47.79"/><path class="cls-11" d="M288.75,310.89l29.59,19.5-1.44,1.49-14.6,7.85-14.84-9.29-.73-17.34v-.21l2-2m0-.32-2.23,2.23v.31l.74,17.48L302.3,340l14.76-7.94,1.67-1.74-30-19.78Z" transform="translate(-237.52 -265.32)"/><polygon class="cls-12" points="51.2 45.25 52.15 44.73 64.97 37.75 80.35 47.67 81.22 64.78 67.82 71.86 52.2 61.81 51.2 45.25"/><path class="cls-13" d="M302.47,303.36l15.15,9.77.85,16.83-13.12,6.93L290,327l-1-16.27.81-.44,12.69-6.91m0-.29-12.82,7-1,.52,1,16.56,15.63,10,13.39-7.07L317.86,313l-15.38-9.92Z" transform="translate(-237.52 -265.32)"/><path class="cls-14" d="M257.3,338.9l-12.42-7.77s3.15-10.43,9.23-17.66,13.55-14.28,13.55-14.28l9.12,5.88,1.09,21.42L275.77,329Z" transform="translate(-237.52 -265.32)"/><path class="cls-14" d="M285.64,303.07l-12.74-8A94.12,94.12,0,0,1,287.1,287a64,64,0,0,1,14.81-4.23l.52,10.2-1.71,2Z" transform="translate(-237.52 -265.32)"/><path class="cls-14" d="M302.49,303.07,317.86,313l.15,2.86a72.11,72.11,0,0,1-7,10.88c-3.71,4.46-11.11,11.76-11.11,11.76l-12.63-7.9-.74-17.79,2.23-2.23Z" transform="translate(-237.52 -265.32)"/><path class="cls-15" d="M348.15,307.72l.83-2.87q-5.2-.36-8-2.91a8.43,8.43,0,0,1-2.8-6.53,11.32,11.32,0,0,1,4.38-9.13q4.38-3.6,11.57-3.6h1.47l.67-2.22H364l-.67,2.3q5.28.32,8.15,2.8a8,8,0,0,1,2.88,6.38,11.62,11.62,0,0,1-4.4,9.29q-4.4,3.7-11.55,3.69h-1.71l-.83,2.8Zm2.66-9,3-9.9h-.6a7.9,7.9,0,0,0-5,1.56,5.12,5.12,0,0,0-2,4.25,3.54,3.54,0,0,0,1.25,2.85A5.87,5.87,0,0,0,350.81,298.75Zm7.74,0h.83a8,8,0,0,0,5-1.54,5,5,0,0,0,2-4.23,3.53,3.53,0,0,0-1.31-2.87,6.1,6.1,0,0,0-3.57-1.22Z" transform="translate(-237.52 -265.32)"/><path class="cls-15" d="M374.1,306.64l7.46-25.11h7.58L385,295.67l14.92-14.13h7.18l-7.42,25.11H392l4.17-14.13-14.92,14.13Z" transform="translate(-237.52 -265.32)"/><path class="cls-15" d="M401.28,311.66l3.25-11.12h2.26a36.35,36.35,0,0,0,4.13-6.19,56.17,56.17,0,0,0,3.61-9.7l.91-3.12H437l-5.63,19h3.13l-4.17,11.12h-6.51l1.51-5H410.17l-2,5Zm13.77-11.12h8.61l3.93-13.09h-6.43l-.83,2.48A37,37,0,0,1,415.05,300.55Z" transform="translate(-237.52 -265.32)"/><path class="cls-15" d="M432.24,306.64,447,291.4l-6.15-9.86h8.41l5.67,10.4,3.1-10.4h7.7l-3,10.12,11.19-10.12h9.56l-12.9,10.83,5.67,14.28h-8.57l-3.57-9.43-4,3.23-1.83,6.21h-7.7l2-6.71L450.73,297l-8.65,9.61Z" transform="translate(-237.52 -265.32)"/><path class="cls-15" d="M478.7,306.64l7.46-25.11h7.58l-4.17,14.13,14.92-14.13h7.18l-7.42,25.11h-7.62l4.17-14.13-14.92,14.13Z" transform="translate(-237.52 -265.32)"/><path class="cls-15" d="M510.82,306.64l7.25-24.39h11.38a10.4,10.4,0,0,1,5.9,1.48,4.66,4.66,0,0,1,2.2,4.06,5.14,5.14,0,0,1-2,4.16,11.09,11.09,0,0,1-5.16,2.2,7.52,7.52,0,0,1,3.73,1.87,4.57,4.57,0,0,1,1.46,3.44,6,6,0,0,1-3,5.17,14.76,14.76,0,0,1-8.23,2Zm3.17-2.1H524.1a12.54,12.54,0,0,0,6.38-1.39,4.26,4.26,0,0,0,2.35-3.83,3.39,3.39,0,0,0-1.9-3.06,9.77,9.77,0,0,0-4.92-1.1H516.8Zm3.39-11.38h8.68a12.27,12.27,0,0,0,6.3-1.41,4.24,4.24,0,0,0,2.38-3.75q0-3.63-5.87-3.63H520Z" transform="translate(-237.52 -265.32)"/><path class="cls-15" d="M554.57,307.22a12.39,12.39,0,0,1-8.47-2.87,9.34,9.34,0,0,1-3.28-7.37,15.93,15.93,0,0,1,15.61-15.3q4.87,0,7.54,2.68a9,9,0,0,1,2.67,6.65,11.71,11.71,0,0,1-.74,4.26H545.74q-.11,1.05-.11,1.63a7.53,7.53,0,0,0,2.49,5.91,9.32,9.32,0,0,0,6.46,2.22,15.24,15.24,0,0,0,9.21-3.25l1.53,1.67A17.55,17.55,0,0,1,554.57,307.22Zm-8.36-14.06h19.58a8.5,8.5,0,0,0,.21-2,6.93,6.93,0,0,0-7.62-7.32,11.79,11.79,0,0,0-7.65,2.68A13.48,13.48,0,0,0,546.21,293.16Z" transform="translate(-237.52 -265.32)"/><path class="cls-15" d="M590.13,282.44a12.81,12.81,0,0,1,8.7,2.87,9.47,9.47,0,0,1,3.31,7.51q0,5.64-4.89,10a15.81,15.81,0,0,1-10.77,4.38q-5.93,0-9-3a10.4,10.4,0,0,1-3.1-7.8,25.86,25.86,0,0,1,.42-4.57,24.88,24.88,0,0,1,1.51-5A22.75,22.75,0,0,1,579,282a16.11,16.11,0,0,1,4.13-3.87,15.56,15.56,0,0,1,5.71-2.32l15.82-3.06.58,2.1L589.6,278a15.07,15.07,0,0,0-6.93,3.11,14.42,14.42,0,0,0-4,6.17h.21A14.91,14.91,0,0,1,590.13,282.44Zm-.37,2.1a12.51,12.51,0,0,0-8.86,3.56,11.22,11.22,0,0,0-3.78,8.44,8.2,8.2,0,0,0,2.41,6.07q2.41,2.39,7,2.39a12.63,12.63,0,0,0,8.78-3.75,11.42,11.42,0,0,0,4-8.54,7.54,7.54,0,0,0-2.51-6A10.3,10.3,0,0,0,589.76,284.55Z" transform="translate(-237.52 -265.32)"/><path class="cls-16" d="M346.85,328.72a6.5,6.5,0,0,1-2.7.49c-2.88,0-5-1.82-5-5.19a5.08,5.08,0,0,1,5.34-5.37,5.53,5.53,0,0,1,2.43.46l-.33,1.08a4.69,4.69,0,0,0-2-.42c-2.4,0-4,1.53-4,4.22,0,2.52,1.44,4.11,3.92,4.11a5.31,5.31,0,0,0,2.17-.43Z" transform="translate(-237.52 -265.32)"/><path class="cls-16" d="M354.88,325.3a3.6,3.6,0,0,1-3.66,3.9,3.5,3.5,0,0,1-3.52-3.78,3.59,3.59,0,0,1,3.64-3.89A3.48,3.48,0,0,1,354.88,325.3Zm-5.81.08c0,1.61.91,2.82,2.22,2.82s2.23-1.2,2.23-2.85c0-1.24-.62-2.81-2.2-2.81S349.07,324,349.07,325.38Z" transform="translate(-237.52 -265.32)"/><path class="cls-16" d="M357.17,324.77h.64c1.12,0,1.88-.52,1.88-1.2s-.59-1.08-1.43-1.08a3.57,3.57,0,0,0-1.78.53l-.33-.82a4.67,4.67,0,0,1,2.44-.67c1.12,0,2.49.5,2.49,1.93a1.87,1.87,0,0,1-1.65,1.67v0a2,2,0,0,1,2,1.84c0,1.58-1.62,2.19-3.17,2.19a5.08,5.08,0,0,1-2.38-.59l.35-.91a4.11,4.11,0,0,0,1.94.52c1.11,0,1.81-.53,1.81-1.26,0-1-1-1.26-2.14-1.26h-.65Z" transform="translate(-237.52 -265.32)"/><path class="cls-16" d="M368.8,321.69V328l.76,0-.08,3.31h-1l-.06-2.32h-5.09l-.08,2.32h-1l-.06-3.29.62,0a5.73,5.73,0,0,0,.73-1.5,9.7,9.7,0,0,0,.43-2.93v-1.91Zm-3.73,2.22a9.26,9.26,0,0,1-.38,2.75,7,7,0,0,1-.58,1.37h3.39V322.7h-2.43Z" transform="translate(-237.52 -265.32)"/><path class="cls-16" d="M376.32,327.27a12.37,12.37,0,0,0,.11,1.76h-1.2l-.11-.93h0a2.74,2.74,0,0,1-2.25,1.09,2.09,2.09,0,0,1-2.25-2.11c0-1.78,1.58-2.75,4.42-2.73v-.15a1.5,1.5,0,0,0-1.67-1.69,3.54,3.54,0,0,0-1.93.55l-.3-.9a4.76,4.76,0,0,1,2.43-.64c2.25,0,2.79,1.53,2.79,3Zm-1.29-2c-1.46,0-3.11.23-3.11,1.65a1.17,1.17,0,0,0,1.24,1.28A1.85,1.85,0,0,0,375,327a1.5,1.5,0,0,0,.06-.42Z" transform="translate(-237.52 -265.32)"/><path class="cls-16" d="M379.76,321.69v3h3.48v-3h1.34V329h-1.34v-3.33h-3.48V329h-1.34v-7.35Z" transform="translate(-237.52 -265.32)"/><path class="cls-16" d="M388,321.69v3.1c0,1.15,0,1.9-.09,2.95l0,0c.46-.9.7-1.41,1.2-2.26l2.29-3.8H393V329h-1.27v-3.11c0-1.2,0-1.82.09-3h0c-.49,1-.79,1.55-1.23,2.29-.7,1.14-1.52,2.55-2.29,3.84h-1.55v-7.35Z" transform="translate(-237.52 -265.32)"/><path class="cls-16" d="M395.91,325.6a2.35,2.35,0,0,0,2.52,2.55,4.77,4.77,0,0,0,2-.38l.24,1a6,6,0,0,1-2.46.47,3.42,3.42,0,0,1-3.61-3.72c0-2.22,1.31-3.95,3.45-3.95,2.41,0,3,2.1,3,3.45a3.22,3.22,0,0,1,0,.62Zm3.92-1a1.9,1.9,0,0,0-1.85-2.16,2.19,2.19,0,0,0-2,2.16Z" transform="translate(-237.52 -265.32)"/><path class="cls-16" d="M411.23,328.78a5.16,5.16,0,0,1-2.11.43,3.49,3.49,0,0,1-3.66-3.75,3.75,3.75,0,0,1,3.95-3.92,4.21,4.21,0,0,1,1.85.39l-.3,1a3.27,3.27,0,0,0-1.55-.35,2.55,2.55,0,0,0-2.6,2.78,2.52,2.52,0,0,0,2.55,2.75,3.83,3.83,0,0,0,1.64-.35Z" transform="translate(-237.52 -265.32)"/><path class="cls-16" d="M418,327.27a12.37,12.37,0,0,0,.11,1.76h-1.2l-.11-.93h0a2.74,2.74,0,0,1-2.25,1.09,2.09,2.09,0,0,1-2.25-2.11c0-1.78,1.58-2.75,4.42-2.73v-.15a1.5,1.5,0,0,0-1.67-1.69,3.54,3.54,0,0,0-1.93.55l-.3-.9a4.76,4.76,0,0,1,2.43-.64c2.25,0,2.79,1.53,2.79,3Zm-1.29-2c-1.46,0-3.11.23-3.11,1.65a1.17,1.17,0,0,0,1.24,1.28,1.85,1.85,0,0,0,1.81-1.23,1.5,1.5,0,0,0,.06-.42Z" transform="translate(-237.52 -265.32)"/><path class="cls-16" d="M421.39,321.69v3.1c0,1.15,0,1.9-.09,2.95l0,0c.46-.9.7-1.41,1.2-2.26l2.29-3.8h1.56V329h-1.28v-3.11c0-1.2,0-1.82.09-3h0c-.49,1-.79,1.55-1.23,2.29-.7,1.14-1.52,2.55-2.29,3.84h-1.55v-7.35Zm.87-3c0,.65.36,1.15,1,1.15s1-.5,1-1.15h1a1.85,1.85,0,0,1-2,1.88,1.78,1.78,0,0,1-1.91-1.88Z" transform="translate(-237.52 -265.32)"/><path class="cls-16" d="M433.49,321.69v1h-2.29V329h-1.34v-6.3h-2.29v-1Z" transform="translate(-237.52 -265.32)"/><path class="cls-16" d="M441.11,325.3a3.6,3.6,0,0,1-3.66,3.9,3.5,3.5,0,0,1-3.52-3.78,3.59,3.59,0,0,1,3.64-3.89A3.48,3.48,0,0,1,441.11,325.3Zm-5.81.08c0,1.61.91,2.82,2.22,2.82s2.23-1.2,2.23-2.85c0-1.24-.62-2.81-2.2-2.81S435.29,324,435.29,325.38Z" transform="translate(-237.52 -265.32)"/><path class="cls-16" d="M442.75,321.78a16,16,0,0,1,2.34-.17c1.25,0,3.28.21,3.28,1.84a1.75,1.75,0,0,1-1.53,1.67v0c1.08.15,1.87.74,1.87,1.81,0,1.93-2.43,2.17-3.87,2.17-.82,0-1.69-.06-2.08-.09Zm1.27,6.39c.38,0,.65,0,1.06,0,.91,0,2.25-.2,2.25-1.28s-1.08-1.29-2.34-1.29h-1Zm0-3.39h1c1,0,2-.29,2-1.17,0-.73-.64-1.08-2-1.08a9,9,0,0,0-1,.06Z" transform="translate(-237.52 -265.32)"/><path class="cls-16" d="M454.83,321.69v3.1c0,1.15,0,1.9-.09,2.95l0,0c.46-.9.7-1.41,1.2-2.26l2.29-3.8h1.56V329h-1.28v-3.11c0-1.2,0-1.82.09-3h0c-.49,1-.79,1.55-1.23,2.29-.7,1.14-1.52,2.55-2.29,3.84h-1.55v-7.35Z" transform="translate(-237.52 -265.32)"/><path class="cls-16" d="M465.23,324.09c0-.94,0-1.7-.06-2.4h1.18l.08,1.26h0a2.86,2.86,0,0,1,2.61-1.41c1.79,0,3.13,1.5,3.13,3.72,0,2.64-1.62,3.95-3.36,3.95a2.58,2.58,0,0,1-2.26-1.15h0v4h-1.32Zm1.32,2a2.09,2.09,0,0,0,.06.55,2.06,2.06,0,0,0,2,1.56c1.41,0,2.23-1.15,2.23-2.84,0-1.46-.77-2.72-2.19-2.72a2.1,2.1,0,0,0-2,1.64,2.15,2.15,0,0,0-.09.53Z" transform="translate(-237.52 -265.32)"/><path class="cls-16" d="M474.61,325.6a2.35,2.35,0,0,0,2.52,2.55,4.78,4.78,0,0,0,2-.38l.24,1a6,6,0,0,1-2.46.47,3.42,3.42,0,0,1-3.61-3.72c0-2.22,1.31-3.95,3.45-3.95,2.41,0,3,2.1,3,3.45a3.27,3.27,0,0,1,0,.62Zm3.92-1a1.9,1.9,0,0,0-1.85-2.16,2.19,2.19,0,0,0-2,2.16Z" transform="translate(-237.52 -265.32)"/><path class="cls-16" d="M482.79,321.69v3.19h.32l2.75-3.19h1.62L484.3,325c1.18.14,1.9.93,2.47,2.25a15.21,15.21,0,0,0,.77,1.79h-1.4a11.57,11.57,0,0,1-.68-1.5,2.38,2.38,0,0,0-2.41-1.73h-.26V329h-1.32v-7.35Z" transform="translate(-237.52 -265.32)"/><path class="cls-16" d="M494.68,321.69V329h-1.34v-6.3h-2.52v1.88c0,2.06-.2,3.45-1.15,4.07a2.15,2.15,0,0,1-1.46.46l-.14-1a1.65,1.65,0,0,0,.73-.3c.68-.5.76-1.53.76-3.17v-2.93Z" transform="translate(-237.52 -265.32)"/><path class="cls-16" d="M502,327.27a12.29,12.29,0,0,0,.11,1.76h-1.2l-.11-.93h0a2.74,2.74,0,0,1-2.25,1.09,2.09,2.09,0,0,1-2.25-2.11c0-1.78,1.58-2.75,4.42-2.73v-.15a1.5,1.5,0,0,0-1.67-1.69,3.54,3.54,0,0,0-1.93.55l-.3-.9a4.75,4.75,0,0,1,2.43-.64c2.25,0,2.79,1.53,2.79,3Zm-1.29-2c-1.46,0-3.11.23-3.11,1.65a1.17,1.17,0,0,0,1.25,1.28,1.85,1.85,0,0,0,1.81-1.23,1.49,1.49,0,0,0,.06-.42Z" transform="translate(-237.52 -265.32)"/><path class="cls-16" d="M504.26,321.69h1.64l1.32,3.7c.2.55.5,1.44.67,2h0c.17-.56.58-1.72.88-2.52l1.17-3.2h1.65l.52,7.35h-1.28l-.17-3.51c0-.8-.09-1.73-.12-2.63h0c-.2.67-.41,1.25-.82,2.38L508.3,329h-1L506,325.35c-.24-.68-.56-1.75-.74-2.43h-.06c0,.87-.06,1.84-.11,2.64l-.2,3.48H503.7Z" transform="translate(-237.52 -265.32)"/><path class="cls-16" d="M519,327.27a12.29,12.29,0,0,0,.11,1.76h-1.2l-.11-.93h0a2.74,2.74,0,0,1-2.25,1.09,2.09,2.09,0,0,1-2.25-2.11c0-1.78,1.58-2.75,4.42-2.73v-.15a1.5,1.5,0,0,0-1.67-1.69,3.54,3.54,0,0,0-1.93.55l-.3-.9a4.75,4.75,0,0,1,2.43-.64c2.25,0,2.79,1.53,2.79,3Zm-1.29-2c-1.46,0-3.11.23-3.11,1.65a1.17,1.17,0,0,0,1.25,1.28,1.85,1.85,0,0,0,1.81-1.23,1.49,1.49,0,0,0,.06-.42Z" transform="translate(-237.52 -265.32)"/><path class="cls-16" d="M530.09,321.69V328l.76,0-.08,3.31h-1l-.06-2.32h-5.09l-.08,2.32h-1l-.06-3.29.62,0a5.75,5.75,0,0,0,.73-1.5,9.71,9.71,0,0,0,.42-2.93v-1.91Zm-3.74,2.22a9.26,9.26,0,0,1-.38,2.75,7,7,0,0,1-.58,1.37h3.39V322.7h-2.43Z" transform="translate(-237.52 -265.32)"/><path class="cls-16" d="M538.11,321.69V329h-1.34v-6.3h-2.52v1.88c0,2.06-.2,3.45-1.15,4.07a2.15,2.15,0,0,1-1.46.46l-.14-1a1.65,1.65,0,0,0,.73-.3c.68-.5.76-1.53.76-3.17v-2.93Z" transform="translate(-237.52 -265.32)"/><path class="cls-16" d="M545.7,329h-1.32V326h-1a1.61,1.61,0,0,0-1.21.43,4.87,4.87,0,0,0-1,2,4.46,4.46,0,0,1-.3.61H539.4a4.79,4.79,0,0,0,.46-.83A5.65,5.65,0,0,1,541,326a1.9,1.9,0,0,1,.83-.42v0a2,2,0,0,1-1.94-1.84,1.77,1.77,0,0,1,1-1.59,5,5,0,0,1,2.47-.5,17.46,17.46,0,0,1,2.35.15Zm-1.32-6.47a7.48,7.48,0,0,0-1.11-.08c-.9,0-2,.26-2,1.27s1.17,1.29,2,1.29h1.14Z" transform="translate(-237.52 -265.32)"/><path class="cls-16" d="M556.64,319.2a9.6,9.6,0,0,1-1.53.33,3.64,3.64,0,0,0-2.63,1.38,5.31,5.31,0,0,0-.8,2.43h0a2.79,2.79,0,0,1,2.57-1.65c1.81,0,3.13,1.29,3.13,3.63s-1.25,3.9-3.4,3.9c-2.58,0-3.43-2.49-3.43-4.93a6.49,6.49,0,0,1,1.14-4.07,4.3,4.3,0,0,1,3.16-1.73,14.16,14.16,0,0,0,1.82-.4ZM554,322.67a1.83,1.83,0,0,0-1.67,1,3.22,3.22,0,0,0-.36,1.56c0,1.21.61,3,2.07,3s2-1.44,2-2.81C556.07,324.22,555.6,322.67,554,322.67Z" transform="translate(-237.52 -265.32)"/><path class="cls-16" d="M560.33,321.69v3.1c0,1.15,0,1.9-.09,2.95l0,0c.46-.9.7-1.41,1.2-2.26l2.29-3.8h1.56V329h-1.28v-3.11c0-1.2,0-1.82.09-3h0c-.49,1-.79,1.55-1.23,2.29-.7,1.14-1.52,2.55-2.29,3.84h-1.55v-7.35Z" transform="translate(-237.52 -265.32)"/><path class="cls-16" d="M568.12,324.77h.64c1.12,0,1.88-.52,1.88-1.2s-.59-1.08-1.43-1.08a3.57,3.57,0,0,0-1.78.53l-.33-.82a4.67,4.67,0,0,1,2.44-.67c1.12,0,2.49.5,2.49,1.93a1.87,1.87,0,0,1-1.66,1.67v0a2,2,0,0,1,2,1.84c0,1.58-1.62,2.19-3.17,2.19a5.08,5.08,0,0,1-2.38-.59l.35-.91a4.11,4.11,0,0,0,1.94.52c1.11,0,1.81-.53,1.81-1.26,0-1-1-1.26-2.14-1.26h-.65Z" transform="translate(-237.52 -265.32)"/><path class="cls-16" d="M575.35,321.69v3h3.48v-3h1.34V329h-1.34v-3.33h-3.48V329H574v-7.35Z" transform="translate(-237.52 -265.32)"/><path class="cls-16" d="M583.09,325.6a2.35,2.35,0,0,0,2.52,2.55,4.78,4.78,0,0,0,2-.38l.24,1a6,6,0,0,1-2.46.47,3.42,3.42,0,0,1-3.61-3.72c0-2.22,1.31-3.95,3.45-3.95,2.41,0,3,2.1,3,3.45a3.27,3.27,0,0,1,0,.62Zm3.92-1a1.9,1.9,0,0,0-1.85-2.16,2.19,2.19,0,0,0-2,2.16Z" transform="translate(-237.52 -265.32)"/><path class="cls-16" d="M595.19,328.78a5.17,5.17,0,0,1-2.11.43,3.49,3.49,0,0,1-3.66-3.75,3.75,3.75,0,0,1,3.95-3.92,4.21,4.21,0,0,1,1.85.39l-.3,1a3.28,3.28,0,0,0-1.55-.35,2.55,2.55,0,0,0-2.6,2.78,2.52,2.52,0,0,0,2.55,2.75,3.82,3.82,0,0,0,1.64-.35Z" transform="translate(-237.52 -265.32)"/><path class="cls-16" d="M602,327.27a12.29,12.29,0,0,0,.11,1.76h-1.2l-.11-.93h0a2.74,2.74,0,0,1-2.25,1.09,2.09,2.09,0,0,1-2.25-2.11c0-1.78,1.58-2.75,4.42-2.73v-.15a1.5,1.5,0,0,0-1.67-1.69,3.54,3.54,0,0,0-1.93.55l-.3-.9a4.75,4.75,0,0,1,2.43-.64c2.25,0,2.79,1.53,2.79,3Zm-1.29-2c-1.46,0-3.11.23-3.11,1.65a1.17,1.17,0,0,0,1.25,1.28,1.85,1.85,0,0,0,1.81-1.23,1.49,1.49,0,0,0,.06-.42Z" transform="translate(-237.52 -265.32)"/></g></g></svg>